<svg width="24" height="24" viewBox="0 0 24 24" fill="none" xmlns="http://www.w3.org/2000/svg">
<path d="M12.003 5.54499L11.886 5.55099L11.774 5.57099C11.5741 5.61808 11.3935 5.72559 11.2568 5.87893C11.1201 6.03226 11.0339 6.22397 11.01 6.42799L11.003 6.54499V11H6.544L6.428 11.007C6.2046 11.0331 5.99653 11.1338 5.8374 11.2927C5.67827 11.4517 5.57737 11.6596 5.551 11.883L5.545 12L5.552 12.117C5.57837 12.3404 5.67927 12.5483 5.8384 12.7073C5.99753 12.8662 6.2056 12.9669 6.429 12.993L6.545 13H11.002L11.003 17.454L11.01 17.57C11.0361 17.7934 11.1368 18.0015 11.2957 18.1606C11.4547 18.3197 11.6626 18.4206 11.886 18.447L12.003 18.454L12.12 18.447C12.3434 18.4206 12.5513 18.3197 12.7103 18.1606C12.8692 18.0015 12.9699 17.7934 12.996 17.57L13.003 17.454V13H17.455L17.571 12.993C17.7944 12.9669 18.0025 12.8662 18.1616 12.7073C18.3207 12.5483 18.4216 12.3404 18.448 12.117L18.455 12L18.448 11.883C18.4216 11.6596 18.3207 11.4517 18.1616 11.2927C18.0025 11.1338 17.7944 11.0331 17.571 11.007L17.455 11H13.002L13.003 6.54499L12.996 6.42799C12.9699 6.2046 12.8692 5.99653 12.7103 5.83739C12.5513 5.67826 12.3434 5.57736 12.12 5.55099L12.003 5.54499ZM8.552 0.998993H15.448C18.202 0.998993 19.733 1.57799 21.112 2.91099C22.367 4.20799 22.95 5.66899 22.997 8.21299L23 8.54999V15.448C23 18.203 22.422 19.734 21.088 21.112C19.79 22.367 18.329 22.95 15.786 22.997L15.448 23H8.552C5.798 23 4.267 22.421 2.888 21.088C1.633 19.791 1.049 18.33 1.003 15.786L1 15.45V8.55099C1 5.79699 1.579 4.26499 2.912 2.88699C4.21 1.63299 5.67 1.04999 8.214 1.00199L8.552 0.999993V0.998993Z" fill="#262626"/>
</svg>
