<svg width="24" height="24" viewBox="0 0 24 24" fill="none" xmlns="http://www.w3.org/2000/svg">
<path d="M12.0031 1.131C10.587 1.0792 9.17512 1.31492 7.85267 1.82393C6.53022 2.33293 5.32465 3.10467 4.30874 4.09254C3.29283 5.08041 2.48767 6.26392 1.94186 7.57161C1.39605 8.87929 1.12092 10.284 1.13308 11.701C1.1102 13.1654 1.40313 14.6175 1.99191 15.9585C2.5807 17.2995 3.45151 18.4978 4.54508 19.472L4.59908 21.252C4.60767 21.5252 4.68316 21.792 4.81894 22.0292C4.95472 22.2664 5.14664 22.4666 5.37785 22.6124C5.60906 22.7581 5.8725 22.8448 6.14505 22.865C6.41761 22.8852 6.69094 22.8381 6.94108 22.728L8.87608 21.856C9.89502 22.1344 10.9468 22.2743 12.0031 22.272C13.4191 22.3237 14.8309 22.0878 16.1533 21.5788C17.4757 21.0697 18.6812 20.298 19.6971 19.3101C20.713 18.3223 21.5182 17.1389 22.064 15.8312C22.6099 14.5236 22.8851 13.1189 22.8731 11.702C22.8852 10.285 22.6101 8.88029 22.0643 7.57261C21.5185 6.26492 20.7133 5.08141 19.6974 4.09354C18.6815 3.10567 17.4759 2.33393 16.1535 1.82493C14.831 1.31592 13.4192 1.0802 12.0031 1.132V1.131ZM17.7891 10.132L15.2231 14.115C15.1068 14.2989 14.9538 14.4568 14.7736 14.5787C14.5934 14.7006 14.3899 14.7839 14.176 14.8233C13.962 14.8628 13.7422 14.8575 13.5304 14.8079C13.3185 14.7583 13.1193 14.6654 12.9451 14.535L10.4931 12.695C10.3835 12.6128 10.2502 12.5685 10.1132 12.5689C9.97629 12.5692 9.84318 12.6142 9.73408 12.697L7.17808 14.746C7.05547 14.841 6.90331 14.8896 6.74836 14.8835C6.59341 14.8773 6.4456 14.8167 6.33093 14.7123C6.21626 14.6079 6.14208 14.4664 6.12144 14.3127C6.1008 14.159 6.13502 14.003 6.21808 13.872L8.78308 9.89C8.89922 9.70613 9.05216 9.54827 9.23228 9.42638C9.4124 9.30449 9.6158 9.2212 9.82968 9.18175C10.0436 9.1423 10.2633 9.14754 10.475 9.19715C10.6868 9.24676 10.886 9.33966 11.0601 9.47L13.5131 11.31C13.6226 11.3918 13.7558 11.4358 13.8926 11.4353C14.0293 11.4347 14.1622 11.3897 14.2711 11.307L16.8271 9.257C16.9496 9.16136 17.102 9.11211 17.2574 9.11796C17.4127 9.1238 17.561 9.18437 17.676 9.28896C17.791 9.39355 17.8653 9.53542 17.8858 9.68951C17.9063 9.84359 17.8717 9.99997 17.7881 10.131L17.7891 10.132Z" fill="#262626"/>
</svg>
